<svg id="b8c79b8a-af21-4fb1-9065-bb0dfde4f135" data-name="Blue" xmlns="http://www.w3.org/2000/svg" viewBox="0 0 260 260"><path d="M219.79,208.7,200.59,130H146.4l11.8-58.9A9.3,9.3,0,0,0,149.1,60H60L45,97.3a9.26,9.26,0,0,0,8.7,12.7h0a9.49,9.49,0,0,0,8.7-5.8L72,80H116.2l-13.8,68.9a9.3,9.3,0,0,0,9.1,11.1h75.69l13.4,52.7a9.32,9.32,0,0,0,9.1,7.3h1A9.32,9.32,0,0,0,219.79,208.7Z"/><ellipse cx="160.4" cy="30" rx="20.1" ry="20"/><path d="M105.4,220a45.19,45.19,0,0,1-45.29-45,44.66,44.66,0,0,1,20.7-37.7,58.35,58.35,0,0,1-.5-7.3A48.16,48.16,0,0,1,83,113.9,65.23,65.23,0,0,0,40,175c0,35.9,29.3,65,65.39,65a65.24,65.24,0,0,0,65.19-60H150.4A45.26,45.26,0,0,1,105.4,220Z"/></svg>